<?xml version="1.0" encoding="UTF-8" standalone="no"?>
<svg width="20px" height="17px" viewBox="0 0 20 17" version="1.1" xmlns="http://www.w3.org/2000/svg" xmlns:xlink="http://www.w3.org/1999/xlink" xmlns:sketch="http://www.bohemiancoding.com/sketch/ns">
    <!-- Generator: Sketch 3.3.1 (12002) - http://www.bohemiancoding.com/sketch -->
    <title>icon.twitter</title>
    <desc>Created with Sketch.</desc>
    <defs></defs>
    <g id="Page-1" stroke="none" stroke-width="1" fill="none" fill-rule="evenodd" sketch:type="MSPage">
        <g id="jpmorgan.icons" sketch:type="MSArtboardGroup" transform="translate(-410.000000, -388.000000)" fill="#0B0B0A">
            <path d="M429.394904,388.535019 C428.602066,388.998047 427.724672,389.333068 426.789582,389.51608 C426.041509,388.729031 424.975108,388.239 423.794307,388.239 C421.528204,388.239 419.691845,390.049113 419.691845,392.278252 C419.691845,392.595272 419.727657,392.904292 419.797291,393.19931 C416.387194,393.030299 413.364066,391.423199 411.340688,388.979046 C410.987542,389.576084 410.784608,390.269127 410.784608,391.009173 C410.784608,392.411261 411.508806,393.647338 412.610024,394.371383 C411.937555,394.350382 411.304876,394.169371 410.75178,393.866352 L410.75178,393.917355 C410.75178,395.874477 412.165359,397.505579 414.042504,397.877602 C413.698311,397.969608 413.336212,398.019611 412.962176,398.019611 C412.697565,398.019611 412.439917,397.99361 412.190228,397.946607 C412.711492,399.550707 414.227532,400.71978 416.023106,400.751782 C414.61848,401.83485 412.849766,402.47989 410.926861,402.47989 C410.5956,402.47989 410.269313,402.461889 409.948,402.423887 C411.763469,403.569958 413.921141,404.239 416.237978,404.239 C423.785354,404.239 427.912685,398.084615 427.912685,392.747282 C427.912685,392.572271 427.908706,392.39826 427.900748,392.225249 C428.701544,391.655214 429.397888,390.943169 429.948,390.134118 C429.211865,390.454138 428.421017,390.672152 427.591372,390.770158 C428.437928,390.269127 429.089507,389.478077 429.394904,388.535019 L429.394904,388.535019 Z" id="icon.twitter" sketch:type="MSShapeGroup"></path>
        </g>
    </g>
</svg>