<?xml version="1.0" encoding="UTF-8" standalone="no"?>
<svg width="19px" height="19px" viewBox="0 0 19 19" version="1.1" xmlns="http://www.w3.org/2000/svg" xmlns:xlink="http://www.w3.org/1999/xlink" xmlns:sketch="http://www.bohemiancoding.com/sketch/ns">
    <!-- Generator: Sketch 3.3.1 (12002) - http://www.bohemiancoding.com/sketch -->
    <title>icon.linkedin</title>
    <desc>Created with Sketch.</desc>
    <defs></defs>
    <g id="Page-1" stroke="none" stroke-width="1" fill="none" fill-rule="evenodd" sketch:type="MSPage">
        <g id="jpmorgan.icons" sketch:type="MSArtboardGroup" transform="translate(-411.000000, -292.000000)" fill="#0A0B09">
            <path d="M415.122701,295.029504 C416.052424,295.029504 416.624869,295.635605 416.642883,296.433738 C416.642883,297.213868 416.052424,297.837972 415.104687,297.837972 L415.086673,297.837972 C414.173963,297.837972 413.584504,297.213868 413.584504,296.433738 C413.584504,295.635605 414.191977,295.029504 415.122701,295.029504 L415.122701,295.029504 Z M417.967914,298.948157 L420.687029,298.948157 L420.687029,300.100349 C421.047309,299.546256 421.692811,298.757125 423.136934,298.757125 C424.925325,298.757125 426.267369,299.918318 426.267369,302.414734 L426.267369,307.075511 L423.548254,307.075511 L423.548254,302.726786 C423.548254,301.634604 423.154948,300.89048 422.171183,300.89048 C421.420599,300.89048 420.973251,301.391564 420.776098,301.877645 C420.704042,302.050674 420.687029,302.293714 420.687029,302.536755 L420.687029,307.075511 L417.967914,307.075511 C417.967914,307.075511 418.003942,299.710284 417.967914,298.948157 L417.967914,298.948157 Z M413.74563,298.948157 L416.463744,298.948157 L416.463744,307.075511 L413.74563,307.075511 L413.74563,298.948157 Z M412.337534,310.008 L427.677466,310.008 C428.412037,310.008 429.0075,309.430904 429.0075,308.718785 L429.0075,293.297215 C429.0075,292.584096 428.412037,292.008 427.677466,292.008 L412.337534,292.008 C411.602963,292.008 411.0075,292.584096 411.0075,293.297215 L411.0075,308.718785 C411.0075,309.430904 411.602963,310.008 412.337534,310.008 L412.337534,310.008 Z" id="icon.linkedin" sketch:type="MSShapeGroup"></path>
        </g>
    </g>
</svg>