<?xml version="1.0" encoding="UTF-8" standalone="no"?>
<svg width="18px" height="18px" viewBox="0 0 18 18" version="1.1" xmlns="http://www.w3.org/2000/svg" xmlns:xlink="http://www.w3.org/1999/xlink" xmlns:sketch="http://www.bohemiancoding.com/sketch/ns">
    <!-- Generator: Sketch 3.3.2 (12043) - http://www.bohemiancoding.com/sketch -->
    <title>icon.search</title>
    <desc>Created with Sketch.</desc>
    <defs></defs>
    <g id="Page-1" stroke="none" stroke-width="1" fill="none" fill-rule="evenodd" sketch:type="MSPage">
        <g id="search" sketch:type="MSArtboardGroup" fill="#000000">
            <path d="M10.7724917,12.8974917 C9.68379964,13.5953502 8.38915534,14 7,14 C3.13400675,14 0,10.8659932 0,7 C0,3.13400675 3.13400675,0 7,0 C10.8659932,0 14,3.13400675 14,7 C14,8.38915534 13.5953502,9.68379964 12.8974917,10.7724917 L18,15.875 L15.875,18 L10.7724917,12.8974917 Z M7,11.5 C9.48528137,11.5 11.5,9.48528137 11.5,7 C11.5,4.51471863 9.48528137,2.5 7,2.5 C4.51471863,2.5 2.5,4.51471863 2.5,7 C2.5,9.48528137 4.51471863,11.5 7,11.5 Z" id="icon.search" sketch:type="MSShapeGroup"></path>
        </g>
    </g>
</svg>