<?xml version="1.0" encoding="UTF-8" standalone="no"?>
<svg width="19px" height="18px" viewBox="0 0 19 18" version="1.1" xmlns="http://www.w3.org/2000/svg" xmlns:xlink="http://www.w3.org/1999/xlink" xmlns:sketch="http://www.bohemiancoding.com/sketch/ns">
    <!-- Generator: Sketch 3.3.1 (12002) - http://www.bohemiancoding.com/sketch -->
    <title>icon.facebook</title>
    <desc>Created with Sketch.</desc>
    <defs></defs>
    <g id="Page-1" stroke="none" stroke-width="1" fill="none" fill-rule="evenodd" sketch:type="MSPage">
        <g id="jpmorgan.icons" sketch:type="MSArtboardGroup" transform="translate(-410.000000, -340.000000)" fill="#0A0B09">
            <path d="M410.9955,356.967686 C410.9955,357.53231 411.458243,357.997 412.023929,357.997 L427.967071,357.997 C428.532757,357.997 428.9955,357.53231 428.9955,356.967686 L428.9955,341.026314 C428.9955,340.459692 428.532757,339.997 427.967071,339.997 L412.023929,339.997 C411.458243,339.997 410.9955,340.459692 410.9955,341.026314 L410.9955,356.967686 Z M419.530758,347.710857 L421.280786,347.710857 L421.280786,345.675215 C421.280786,344.07628 422.314212,342.608259 424.695889,342.608259 C425.660353,342.608259 426.372957,342.700198 426.372957,342.700198 L426.316988,344.924715 C426.316988,344.924715 425.590392,344.918719 424.796833,344.918719 C423.93831,344.918719 423.799387,345.314455 423.799387,345.972017 L423.799387,347.710857 L426.38595,347.710857 L426.274012,350.094268 L423.799387,350.094268 L423.799387,356.709858 L421.280786,356.709858 L421.280786,350.094268 L419.530758,350.094268 L419.530758,347.710857 Z" id="icon.facebook" sketch:type="MSShapeGroup"></path>
        </g>
    </g>
</svg>