<?xml version="1.0" encoding="UTF-8" standalone="no"?>
<svg width="122px" height="26px" viewBox="0 0 122 26" version="1.1" xmlns="http://www.w3.org/2000/svg" xmlns:xlink="http://www.w3.org/1999/xlink" xmlns:sketch="http://www.bohemiancoding.com/sketch/ns">
    <!-- Generator: Sketch 3.3.1 (12002) - http://www.bohemiancoding.com/sketch -->
    <title>logo</title>
    <desc>Created with Sketch.</desc>
    <defs></defs>
    <g id="Page-1" stroke="none" stroke-width="1" fill="none" fill-rule="evenodd" sketch:type="MSPage">
        <g id="logo" sketch:type="MSArtboardGroup" fill="#FFFFFF">
            <path d="M5.06691743,0 L5.06691743,0.613826087 L7.32223853,0.613826087 L7.32223853,12.5455652 C7.32223853,16.1301739 6.34288073,17.1396522 4.15807339,17.1396522 C2.78361468,17.1396522 2.55752294,16.0804348 2.55752294,15.5321739 C2.55752294,14.2276522 2.48588991,13.4295652 1.31513761,13.4295652 C0.137669725,13.4295652 0,14.6368696 0,15.0053913 C0,16.647913 0.720807339,17.9049565 3.93757798,17.9049565 C7.77106422,17.9049565 9.82044037,16.5913913 9.82044037,12.2290435 L9.82044037,0.610434783 L12.1507523,0.613826087 L12.1507523,0 L5.06691743,0 M12.116055,15.5389565 C11.8440734,15.8147826 11.7086422,16.1426087 11.7086422,16.5405217 C11.7086422,16.9350435 11.8440734,17.2594783 12.1194128,17.5217391 C12.3947523,17.7953043 12.721578,17.9275652 13.1032477,17.9275652 C13.491633,17.9275652 13.819578,17.7953043 14.0993945,17.5217391 C14.3691376,17.2594783 14.5056881,16.9350435 14.5056881,16.5405217 C14.5056881,16.138087 14.3691376,15.8091304 14.0993945,15.5389565 C13.8285321,15.2631304 13.5028257,15.1353913 13.1032477,15.1353913 C12.7081468,15.1353913 12.3824404,15.2631304 12.116055,15.5389565 M27.8484587,15.5389565 C27.5798349,15.8147826 27.4488807,16.1426087 27.4488807,16.5405217 C27.4488807,16.9350435 27.5798349,17.2594783 27.8484587,17.5217391 C28.1361101,17.7953043 28.4539817,17.9275652 28.8356514,17.9275652 C29.2307523,17.9275652 29.5598165,17.7953043 29.8373945,17.5217391 C30.1116147,17.2594783 30.2470459,16.9350435 30.2470459,16.5405217 C30.2470459,16.138087 30.1116147,15.8091304 29.839633,15.5389565 C29.5642936,15.2631304 29.2341101,15.1353913 28.8356514,15.1353913 C28.4461468,15.1353913 28.1182018,15.2631304 27.8484587,15.5389565 M16.9624771,0.00226086957 L16.9624771,0.613826087 L19.0006606,0.613826087 L19.0006606,14.2242609 C19.0006606,15.2936522 18.9357431,15.5717391 18.8171009,15.8814783 C18.6917431,16.2273913 18.4063303,16.4998261 17.9854862,16.6773043 C17.6720917,16.8118261 17.1964037,16.8830435 16.5617798,16.9 L16.5617798,17.4629565 L24.0295229,17.4629565 L24.0295229,16.9067826 C23.3971376,16.8909565 22.9136147,16.8163478 22.5979817,16.7021739 C22.1525138,16.5235652 21.8637431,16.2613043 21.7227156,15.9052174 C21.5984771,15.5988696 21.5346789,15.3286957 21.5346789,14.7917391 L21.5346789,10.1309565 L23.3825872,10.1230435 C28.7494679,10.1230435 30.2571193,7.97408696 30.2571193,5.04173913 C30.2571193,2.07773913 29.3314862,0 23.8974495,0 L16.9624771,0.00226086957 M21.5346789,0.691826087 L22.8184771,0.674869565 C26.9575229,0.674869565 27.8607706,2.40217391 27.8607706,5.20226087 C27.8607706,8.01930435 26.2333578,9.45721739 22.9516697,9.45721739 L21.5346789,9.45721739 L21.5346789,0.691826087 M49.6304954,0.0406956522 C49.5678165,0.203478261 44.3710642,13.3447826 44.3710642,13.3447826 L44.252422,13.4227826 L44.1281835,13.3447826 C44.1281835,13.3447826 38.5911743,0.203478261 38.5262569,0.0406956522 L33.6395413,0.0406956522 L33.6395413,0.603652174 L35.7605505,0.603652174 L35.7605505,14.1191304 L35.7146606,15.3501739 C35.6810826,15.6746087 35.5814679,15.9651304 35.4247706,16.1946087 C35.2591193,16.4466957 34.9904954,16.6366087 34.6412844,16.7632174 C34.4107156,16.8389565 34.0671009,16.8909565 33.6395413,16.9011304 L33.6395413,17.4629565 L38.4893211,17.4629565 L38.4893211,16.9090435 C38.0774312,16.8909565 37.8983486,16.8502609 37.6565872,16.7677391 C37.3006606,16.6490435 37.033156,16.4704348 36.8563119,16.2126957 C36.6996147,15.9741739 36.5966422,15.6881739 36.561945,15.3501739 L36.5071009,14.1191304 L36.5071009,2.44513043 L36.7925138,2.44513043 C36.7925138,2.44513043 43.0626422,17.3001739 43.1286789,17.4629565 L43.6524954,17.4629565 L49.586844,2.61017391 L49.7368257,2.61017391 L49.7368257,14.6470435 C49.7368257,15.1625217 49.6853394,15.5593043 49.586844,15.867913 C49.4704404,16.2285217 49.2174862,16.4998261 48.850367,16.684087 C48.5783853,16.8073043 48.1631376,16.8796522 47.6169358,16.9011304 L47.6169358,17.4629565 L54.3828991,17.4629565 L54.3828991,16.9011304 C53.8422936,16.874 53.4248073,16.8005217 53.1405138,16.6705217 C52.7476514,16.4772174 52.4924587,16.1946087 52.3805321,15.8362609 C52.283156,15.522 52.2361468,15.1376522 52.2361468,14.6470435 L52.2361468,0.614956522 L54.0348073,0.596869565 L54.0348073,0.0406956522 L49.6304954,0.0406956522 M55.6073761,11.3461739 C55.6073761,17.5646957 60.3743303,17.9750435 61.404055,17.9750435 C63.4422385,17.9750435 67.3048257,16.6863478 67.3048257,11.2297391 C67.3048257,6.98382609 64.8334862,4.67321739 61.4846422,4.67321739 C57.8727706,4.67321739 55.6073761,7.10252174 55.6073761,11.3461739 M58.3036881,11.4151304 C58.3036881,8.00573913 58.5129908,5.44643478 61.437633,5.44643478 C64.5973211,5.44643478 64.6118716,8.09391304 64.6118716,11.2003478 C64.6118716,15.6644348 63.8597248,17.204087 61.437633,17.204087 C58.7222936,17.204087 58.3036881,15.8272174 58.3036881,11.4151304 M73.3231193,7.47782609 L73.1541101,7.47217391 C73.1350826,7.47782609 72.8429541,5.55382609 72.7321468,4.98747826 C71.8893394,4.98747826 68.5516881,4.97843478 68.5516881,4.97843478 L68.5516881,5.62956522 L70.8137248,5.62956522 C70.8137248,5.62956522 70.8014128,7.57843478 70.8014128,8.28043478 L70.8014128,14.2513913 C70.8014128,15.106 70.7073945,15.7017391 70.5260734,16.0623478 C70.2943853,16.4885217 69.7761651,16.7021739 68.9176881,16.7021739 L68.5516881,16.7021739 L68.5516881,17.4629565 L75.5582936,17.4629565 L75.5582936,16.7021739 L75.1799817,16.7021739 C74.2610642,16.7021739 73.864844,16.4998261 73.6174862,16.0962609 C73.3947523,15.7390435 73.2951376,15.1353913 73.2951376,14.2513913 L73.2951376,9.77373913 C73.2951376,8.2646087 74.4144037,6.54521739 75.7575229,6.54521739 C77.1599633,6.54521739 77.1275046,8.7393913 78.7179817,7.85652174 C79.5831743,7.37721739 79.4365505,4.86313043 76.7525505,4.86313043 C74.592367,4.86313043 73.9196881,6.1586087 73.3231193,7.47782609 M95.198055,5.63521739 C94.3977798,6.25356522 94.0866239,6.82443478 94.0866239,7.64173913 C94.0866239,8.02156522 94.1873578,8.28947826 94.3977798,8.46921739 C94.6093211,8.66026087 94.8566789,8.74730435 95.16,8.74730435 C95.8561835,8.74730435 96.2479266,8.38782609 96.3934312,7.4586087 C96.4997615,6.76904348 96.6475046,6.37565217 96.9821651,6.01617391 C97.3403303,5.63521739 97.898844,5.44530435 98.6543486,5.44530435 C99.5329725,5.44530435 100.154165,5.68495652 100.503376,6.1653913 C100.823486,6.61643478 100.992495,7.23026087 100.992495,7.98878261 L100.992495,10.0823478 C98.7472477,10.288087 93.4475229,10.719913 93.6825688,14.8166087 C93.7709908,16.4195652 95.1644771,17.8269565 96.9642569,17.8269565 C98.9543119,17.8269565 100.213486,16.6773043 101.068606,15.7571304 C101.205156,16.6286957 102.003193,17.6698261 103.453761,17.6698261 C105.084532,17.6698261 106.059413,16.8593043 106.172459,14.8301739 L105.752734,14.8301739 C105.643046,15.711913 105.105798,16.1878261 104.663688,16.1878261 C103.912661,16.1878261 103.675376,15.763913 103.619413,15.0585217 L103.574642,13.4612174 L103.574642,8.23069565 C103.574642,7.10252174 103.39556,6.344 102.73967,5.67817391 C102.093853,5.01347826 100.844752,4.67321739 99.0382569,4.67321739 C97.3033945,4.67321739 96.0162385,4.99765217 95.198055,5.63521739 M96.1348807,14.3361739 C96.1348807,12.012 99.2733028,10.8487826 100.992495,10.8487826 L100.992495,14.8663478 L100.949963,14.9646957 L100.897358,15.0155652 C99.6963853,16.1211304 98.7808257,16.5145217 98.1103853,16.5145217 C96.3934312,16.5145217 96.1348807,15.0630435 96.1348807,14.3361739 M111.102826,7.24156522 L110.878972,7.23252174 L110.439101,4.96373913 L106.631358,4.95695652 L106.631358,5.60808696 C107.346569,5.6386087 108.538587,5.65217391 108.538587,5.65217391 L108.538587,14.2366957 C108.538587,14.9036522 108.487101,15.384087 108.390844,15.7017391 C108.288991,16.0815652 108.04611,16.3472174 107.686826,16.4998261 C107.456257,16.6015652 107.093615,16.6569565 106.631358,16.6773043 L106.631358,17.4629565 L112.686587,17.4629565 L112.686587,16.6716522 C112.077706,16.621913 111.666936,16.4546087 111.44756,16.1392174 C111.211394,15.8012174 111.102826,15.2213043 111.102826,14.3734783 L111.102826,11.076 C111.102826,9.69686957 111.09611,8.36521739 111.559486,7.54 C112.059798,6.64130435 112.976477,6.14617391 114.001725,6.14617391 C114.924,6.14617391 115.408642,6.44686957 115.713083,7.04034783 C115.96156,7.52304348 116.122734,8.96095652 116.122734,9.95121739 L116.092514,14.0377391 C116.092514,14.7182609 116.177578,15.2213043 116.122734,15.5434783 C116.054459,15.919913 115.886569,16.2126957 115.59444,16.4082609 C115.382899,16.5563478 115.050477,16.6332174 114.624037,16.6648696 L114.624037,17.4629565 L120.45989,17.4629565 L120.45989,16.6773043 C119.722294,16.6286957 119.238771,16.4466957 119.027229,16.0962609 C118.786587,15.7390435 118.589596,15.1387826 118.589596,14.2423478 L118.623174,8.58565217 C118.623174,7.76834783 118.514606,7.0686087 118.211284,6.49434783 C117.905725,5.93591304 117.475927,5.51313043 116.940917,5.23391304 C116.398073,4.95695652 115.775761,4.82017391 115.09189,4.82017391 C112.630624,4.82017391 111.642312,6.34513043 111.102826,7.24156522 M91.6074495,4.16904348 C91.2470459,4.2866087 91.0075229,4.61217391 90.8799266,5.16269565 C90.7859083,5.67026087 90.595633,5.96417391 90.3426789,6.04669565 C90.0897248,6.12243478 89.8065505,6.10095652 89.4696514,5.98452174 C88.8417431,5.39217391 87.6374128,4.67321739 85.5186422,4.67321739 C82.1071193,4.67321739 80.603945,7.13982609 80.603945,9.3893913 C80.603945,12.0233043 81.601211,13.2984348 83.7960917,13.7675652 C83.9292844,13.7958261 83.9292844,13.9450435 83.814,13.9721739 C81.9414679,14.3565217 80.2827156,14.9126957 80.2827156,16.718 C80.2827156,17.8054783 80.8983119,18.4012174 81.6862752,18.727913 C82.555945,19.0862609 83.7781835,19.2716522 85.3126972,19.299913 C86.653578,19.3146087 87.6049541,19.3632174 88.2239083,19.4389565 C88.8932294,19.5158261 89.4226422,19.7102609 89.8155046,19.9996522 C90.2184404,20.3161739 90.4311009,20.781913 90.4311009,21.3923478 C90.4311009,22.2277391 89.9912294,22.8992174 89.114844,23.3977391 C88.2966606,23.860087 87.1818716,24.102 85.7928624,24.102 C84.6030826,24.102 83.6282018,23.9697391 82.749578,23.4146957 C82.0981651,23.0043478 81.9705688,22.2006087 82.1071193,21.6206957 C82.2291193,21.034 82.022055,20.4167826 81.3527339,20.3026087 C80.9844954,20.2393043 80.5211193,20.4427826 80.3062202,20.781913 C80.1058716,21.0973043 80.0342385,21.4737391 80.0342385,21.9213913 C80.0342385,23.4067826 81.1646972,24.102 82.0287706,24.3574783 C83.3461468,24.7655652 84.2202936,24.863913 85.4313394,24.863913 C87.0374862,24.863913 88.3425505,24.6152174 89.2748991,24.135913 C90.2072477,23.6577391 90.8586606,23.0733043 91.2045138,22.4006957 C91.5705138,21.7246957 91.7462385,21.034 91.7462385,20.3693043 C91.7462385,19.4717391 91.5514862,18.7392174 91.1742936,18.2011304 C89.9554128,16.4998261 88.2239083,16.718 84.3322202,16.5292174 C82.4608073,16.5292174 82.0992844,16.1866957 82.0992844,15.6022609 C82.0992844,14.7453913 82.7932294,14.4085217 85.5029725,13.9868696 C88.1701835,13.5652174 90.6571927,12.5715652 90.6571927,9.26617391 C90.6571927,8.31547826 90.4378165,7.49817391 90.1725505,6.92730435 C90.7243486,7.05278261 91.239211,7.05278261 91.7081835,6.89452174 C92.2476697,6.72608696 92.5957615,6.45252174 92.7983486,6.06930435 C93.0009358,5.68382609 93.0468257,5.32208696 92.9348991,4.96826087 C92.7558165,4.38947826 92.4513761,4.10121739 92.0103853,4.10121739 C91.8872661,4.10121739 91.7529541,4.12382609 91.6074495,4.16904348 M83.0786422,9.3893913 C83.0786422,7.0686087 83.8766789,5.34130435 85.5846789,5.34130435 C87.5713761,5.34130435 88.1522752,6.91486957 88.1522752,9.34191304 C88.1522752,12.8123478 87.0755413,13.2667826 85.5846789,13.2667826 C83.990844,13.2667826 83.0786422,12.680087 83.0786422,9.3893913" id="Imported-Layers" sketch:type="MSShapeGroup"></path>
        </g>
    </g>
</svg>